<?xml version="1.0" standalone="no"?>
<!DOCTYPE svg PUBLIC "-//W3C//DTD SVG 20010904//EN"
 "http://www.w3.org/TR/2001/REC-SVG-20010904/DTD/svg10.dtd">
<svg version="1.0" xmlns="http://www.w3.org/2000/svg"
 width="260.000000pt" height="260.000000pt" viewBox="0 0 260.000000 260.000000"
 preserveAspectRatio="xMidYMid meet">
<metadata>
Created by potrace 1.14, written by Peter Selinger 2001-2017
</metadata>
<g transform="translate(0.000000,260.000000) scale(0.100000,-0.100000)"
fill="#000000" stroke="none">
<path d="M1180 2592 c0 -5 -14 -9 -31 -10 -17 0 -36 -5 -42 -11 -7 -5 -25 -8
-40 -7 -17 2 -31 -3 -37 -13 -5 -9 -10 -13 -10 -8 0 4 -11 0 -25 -9 -14 -9
-25 -12 -25 -8 0 5 -4 4 -8 -2 -4 -5 -23 -18 -43 -27 -20 -9 -42 -23 -49 -32
-7 -8 -17 -15 -24 -15 -14 0 -216 -201 -216 -215 0 -15 -103 -115 -118 -115
-6 0 -24 -13 -38 -30 -15 -16 -31 -27 -35 -24 -5 3 -12 -2 -15 -10 -3 -9 -10
-14 -14 -11 -5 3 -14 -1 -21 -8 -7 -7 -23 -11 -36 -9 -13 2 -23 -1 -23 -7 0
-6 -13 -11 -28 -11 -76 0 -102 -43 -98 -165 1 -38 -2 -78 -7 -87 -4 -10 -4
-18 1 -18 5 0 8 -13 6 -30 -2 -16 1 -30 6 -30 6 0 10 -20 10 -44 0 -25 5 -48
11 -51 6 -4 8 -13 5 -21 -3 -7 1 -19 8 -26 7 -8 16 -30 20 -50 3 -20 13 -42
22 -49 8 -7 12 -19 9 -27 -3 -9 6 -27 21 -43 14 -15 26 -31 26 -36 1 -18 13
-39 31 -56 11 -9 18 -20 15 -23 -8 -7 130 -144 145 -144 7 0 19 -9 27 -20 8
-11 22 -20 32 -20 10 0 18 -4 18 -9 0 -9 38 -24 53 -22 4 1 10 -6 13 -14 3 -8
10 -12 16 -9 5 3 17 -1 26 -9 9 -8 24 -13 34 -12 20 4 33 -36 15 -50 -6 -6
-13 -17 -15 -25 -2 -8 -10 -22 -18 -31 -8 -8 -14 -21 -14 -27 0 -7 -5 -12 -11
-12 -6 0 -9 -7 -5 -15 3 -8 2 -15 -3 -15 -8 0 -35 -48 -36 -65 0 -5 -8 -16
-17 -23 -10 -7 -18 -19 -18 -26 0 -8 -7 -19 -15 -26 -8 -6 -14 -15 -13 -18 3
-14 -22 -62 -32 -62 -5 0 -12 -11 -16 -25 -3 -14 -10 -25 -16 -25 -5 0 -7 -4
-3 -9 3 -5 -2 -17 -11 -25 -8 -9 -12 -16 -8 -16 4 0 -2 -10 -13 -22 -11 -13
-27 -40 -37 -60 -9 -20 -21 -40 -27 -44 -10 -6 -32 -55 -29 -63 1 -2 -2 -7 -7
-10 -12 -9 -33 -49 -33 -63 0 -7 -9 -19 -20 -26 -11 -7 -20 -21 -20 -32 0 -11
-4 -20 -9 -20 -10 0 -9 -110 2 -127 5 -7 17 -13 28 -13 10 0 19 -4 19 -10 0
-5 18 -10 41 -10 24 0 38 4 34 10 -3 6 1 10 10 10 21 0 45 24 45 44 0 9 5 16
11 16 6 0 9 6 7 12 -5 13 2 23 38 62 11 13 18 28 16 34 -2 7 1 12 7 12 6 0 11
9 11 20 0 11 5 20 10 20 6 0 10 9 10 20 0 10 9 24 20 30 11 6 18 15 15 19 -2
5 2 14 10 21 8 7 13 16 10 20 -3 4 2 13 10 20 8 7 13 16 10 20 -2 4 4 15 15
25 11 10 20 24 20 32 0 7 5 13 11 13 5 0 8 4 5 9 -3 4 7 21 22 37 l27 30 498
-1 499 0 24 -28 c13 -16 22 -32 19 -37 -3 -4 2 -11 11 -14 8 -3 12 -10 9 -16
-3 -5 -1 -10 4 -10 6 0 11 -8 11 -18 0 -10 9 -24 20 -32 11 -8 20 -22 20 -32
0 -10 5 -18 11 -18 5 0 8 -4 4 -9 -3 -5 2 -17 11 -26 9 -9 14 -19 11 -22 -8
-7 18 -33 33 -33 6 0 9 -4 6 -9 -8 -12 44 -112 61 -118 8 -3 12 -12 9 -19 -3
-7 2 -18 12 -23 9 -5 14 -13 10 -16 -10 -10 17 -35 36 -35 9 0 16 -4 16 -10 0
-13 67 -13 75 0 4 6 10 8 15 5 14 -9 40 56 40 100 0 29 -6 47 -20 60 -11 10
-17 21 -15 25 3 4 -2 13 -10 20 -8 7 -12 16 -9 21 3 5 -2 12 -10 15 -9 3 -13
10 -10 16 3 5 -4 17 -15 27 -12 10 -21 26 -21 35 0 9 -5 16 -11 16 -6 0 -9 6
-6 14 3 8 -1 17 -10 20 -8 4 -13 12 -10 19 3 8 -4 19 -14 25 -10 7 -19 18 -19
26 0 7 -7 19 -15 26 -8 6 -14 15 -13 18 2 12 -16 46 -34 66 -10 11 -18 26 -18
33 0 7 -5 13 -11 13 -5 0 -8 4 -4 9 3 5 0 15 -7 23 -7 7 -14 19 -16 26 -1 6
-11 21 -22 32 -12 12 -18 25 -15 29 2 5 -2 12 -11 15 -8 3 -13 10 -9 15 3 5 1
12 -4 16 -6 3 -8 12 -4 20 3 8 0 15 -7 15 -17 0 -42 28 -35 40 3 6 -1 13 -10
16 -9 4 -14 13 -11 20 3 8 1 14 -4 14 -6 0 -10 7 -10 16 0 9 -10 24 -21 33
-20 16 -20 18 -4 34 9 10 21 15 26 12 4 -3 19 0 31 8 13 7 30 13 38 13 8 -1
21 4 28 11 8 7 18 11 23 8 5 -4 9 -3 9 2 0 4 15 14 33 22 17 8 44 27 59 42 14
15 29 25 31 23 3 -3 26 16 52 41 26 25 45 48 42 51 -3 4 7 18 23 32 17 15 30
32 30 38 0 6 6 17 14 23 21 18 86 152 79 164 -3 5 -1 12 5 16 7 4 13 16 15 26
2 11 8 29 14 40 6 11 8 26 6 33 -3 7 2 23 9 35 10 14 12 31 7 49 -5 19 -3 31
7 39 10 8 14 31 13 75 -1 35 3 70 8 76 5 7 10 28 11 46 3 44 -51 102 -96 102
-17 0 -34 5 -37 10 -3 6 -17 10 -31 10 -13 0 -24 5 -24 11 0 5 -5 7 -10 4 -6
-3 -12 0 -15 7 -3 8 -15 15 -27 15 -12 1 -26 9 -30 18 -5 8 -14 15 -20 15 -15
0 -208 191 -208 205 0 20 -163 165 -185 165 -3 0 -15 9 -27 20 -12 11 -28 20
-35 20 -7 0 -13 5 -13 11 0 6 -6 9 -14 6 -8 -3 -20 1 -27 9 -7 8 -18 13 -25
10 -7 -3 -18 1 -24 9 -6 7 -20 11 -30 8 -12 -3 -22 1 -26 10 -4 11 -15 14 -43
10 -23 -3 -41 -1 -45 6 -8 13 -226 16 -226 3z m224 -209 c3 -7 12 -10 21 -7 9
4 24 -1 34 -10 10 -9 20 -13 24 -10 8 8 67 -18 67 -30 0 -4 6 -6 14 -3 9 4 21
-5 31 -19 9 -14 20 -22 25 -19 9 6 150 -131 150 -146 0 -11 182 -195 190 -191
3 1 13 -5 23 -13 9 -8 21 -15 25 -15 5 0 18 -9 30 -21 26 -24 89 -53 117 -53
16 -1 19 -8 20 -51 1 -27 -4 -58 -11 -68 -6 -10 -10 -31 -8 -47 2 -16 -1 -32
-6 -35 -6 -3 -10 -17 -10 -29 0 -13 -6 -29 -14 -35 -8 -7 -12 -21 -9 -31 3
-11 1 -20 -5 -20 -5 0 -13 -12 -17 -27 -3 -15 -20 -47 -36 -71 -16 -23 -29
-46 -29 -50 0 -11 -104 -112 -116 -112 -6 0 -19 -9 -29 -20 -10 -11 -22 -17
-26 -14 -5 3 -12 -1 -15 -10 -3 -8 -12 -12 -20 -9 -8 3 -14 0 -14 -6 0 -6 -13
-11 -30 -11 -16 0 -30 -4 -30 -10 0 -5 -16 -10 -35 -10 -19 0 -35 -4 -35 -8 0
-5 -177 -8 -392 -8 -314 -1 -395 2 -406 13 -9 9 -19 10 -32 3 -13 -7 -21 -5
-31 6 -7 8 -18 13 -26 10 -8 -3 -16 1 -19 9 -4 8 -15 15 -25 15 -10 0 -19 5
-19 12 0 6 -3 8 -7 5 -3 -4 -15 0 -25 10 -10 9 -18 13 -18 8 0 -4 -31 23 -69
61 -38 38 -69 73 -69 77 0 5 -13 22 -28 38 -15 16 -25 29 -21 29 4 0 1 10 -8
23 -8 13 -12 27 -9 30 4 4 1 13 -5 21 -7 8 -9 21 -5 27 4 7 3 9 -4 5 -12 -7
-27 28 -18 43 3 5 -1 11 -9 15 -9 3 -13 14 -11 28 2 13 -1 28 -6 35 -10 12
-18 110 -10 130 5 16 59 43 84 43 10 0 18 4 18 8 0 5 21 20 48 33 26 13 61 38
78 56 18 18 37 33 43 33 14 0 85 69 78 76 -3 3 49 59 116 125 66 65 122 117
124 115 2 -2 16 7 30 20 14 13 29 21 34 19 4 -3 23 3 41 13 18 10 47 19 63 20
17 1 31 6 33 10 4 14 201 10 206 -5z m151 -1437 c5 -6 11 -18 13 -26 2 -7 11
-21 21 -29 10 -9 16 -22 14 -28 -3 -7 0 -13 6 -13 6 0 11 -5 11 -10 0 -6 12
-29 27 -53 14 -23 27 -44 27 -46 1 -2 -176 -4 -392 -5 -307 -1 -392 2 -392 12
0 6 5 12 11 12 5 0 7 5 4 11 -4 5 1 18 12 27 20 19 58 91 56 108 0 7 10 18 23
25 13 7 24 16 24 20 0 12 523 8 535 -5z"/>
<path d="M1054 1661 c-2 -2 -42 -3 -90 -2 -77 2 -89 0 -110 -20 -20 -19 -24
-32 -24 -85 0 -58 5 -69 33 -72 4 -1 14 -7 21 -14 10 -10 95 -13 389 -13 l377
1 33 32 c29 28 34 39 32 74 -1 23 -7 44 -14 46 -6 2 -9 7 -6 12 11 17 -46 41
-94 39 -26 -1 -52 1 -59 4 -6 4 -13 3 -17 -3 -4 -7 -12 -7 -25 0 -10 6 -21 7
-23 3 -3 -5 -44 -6 -92 -3 -48 3 -88 3 -90 0 -2 -3 -56 -3 -120 0 -64 3 -118
3 -121 1z"/>
</g>
</svg>
