<svg xmlns="http://www.w3.org/2000/svg" id="logo-maestro-bw" viewBox="0 0 32 24.7">
    <path d="M23.1 21.9a.6.6 0 0 1 .4.1l-.2.5c-.1 0-.2-.1-.3-.1-.4 0-.5.2-.5.7v1.4h-.6V22h.6v.3a.675.675 0 0 1 .6-.4zm-2.1.6h-.9v1.2c0 .3.1.4.4.4a1.087 1.087 0 0 0 .5-.1l.2.5a1.854 1.854 0 0 1-.7.2.793.793 0 0 1-.9-.9v-1.2H19V22h.5v-.8h.6v.8h.9zm-7.1.5a.661.661 0 0 1 .7-.6.53.53 0 0 1 .6.6zm1.9.2a1.184 1.184 0 0 0-1.2-1.3 1.3 1.3 0 1 0 0 2.6 1.666 1.666 0 0 0 1.1-.4l-.3-.4a1.08 1.08 0 0 1-.7.3.76.76 0 0 1-.8-.6h1.9zm2.4-.6a1.884 1.884 0 0 0-.8-.2c-.3 0-.5.1-.5.3s.2.2.4.3h.3c.6.1.9.3.9.8s-.4.8-1.2.8a2.016 2.016 0 0 1-1.1-.3l.3-.4a1.9 1.9 0 0 0 .9.3q.6 0 .6-.3c0-.1-.1-.2-.5-.3h-.3c-.6-.1-.9-.3-.9-.8s.4-.8 1.1-.8a1.493 1.493 0 0 1 1 .3zm6.9-.2a.367.367 0 0 0-.3.1c-.1 0-.2.1-.3.2s-.1.2-.2.3c0 .1-.1.2-.1.3a.367.367 0 0 0 .1.3c0 .1.1.2.2.3s.2.1.3.2c.1 0 .2.1.3.1a.367.367 0 0 0 .3-.1c.1 0 .2-.1.3-.2s.1-.2.2-.3c0-.1.1-.2.1-.3a.367.367 0 0 0-.1-.3c0-.1-.1-.2-.2-.3s-.2-.1-.3-.2c-.1 0-.2-.1-.3-.1zm0-.5a1.268 1.268 0 0 1 .6.1 1.381 1.381 0 0 1 .4.3c.1.1.2.3.3.4a.9.9 0 0 1 .1.5.749.749 0 0 1-.1.5 1.38 1.38 0 0 1-.3.4c-.1.1-.3.2-.4.3a1.85 1.85 0 0 1-1.2 0 1.381 1.381 0 0 1-.4-.3c-.1-.1-.2-.3-.3-.4a.9.9 0 0 1-.1-.5.749.749 0 0 1 .1-.5 1.38 1.38 0 0 1 .3-.4c.1-.1.3-.2.4-.3a1.268 1.268 0 0 1 .6-.1zm-14.5 1.3a.736.736 0 0 1 .8-.8.8.8 0 0 1 0 1.6c-.5.1-.8-.3-.8-.8zm2.1 0V22h-.6v.3a1.039 1.039 0 0 0-.8-.4 1.324 1.324 0 0 0-1.3 1.3 1.261 1.261 0 0 0 1.3 1.3.812.812 0 0 0 .8-.4v.3h.6zm-3.1 1.3v-1.6a.945.945 0 0 0-1-1 .957.957 0 0 0-.9.5 1.02 1.02 0 0 0-.8-.5 1.033 1.033 0 0 0-.8.4V22h-.6v2.6h.6v-1.4c0-.4.2-.7.6-.7s.6.2.6.7v1.4h.6v-1.4a.669.669 0 0 1 .6-.7c.4 0 .6.2.6.7v1.4h.5zM9.5 19A9.511 9.511 0 0 1 0 9.5 9.511 9.511 0 0 1 9.5 0a9.519 9.519 0 0 1 6 2.134A9.468 9.468 0 0 0 12 9.5a9.47 9.47 0 0 0 3.5 7.366A9.519 9.519 0 0 1 9.5 19z"/>
    <path d="M22.5 0A9.5 9.5 0 1 1 13 9.5 9.5 9.5 0 0 1 22.5 0z"/>
</svg>
